<svg xmlns="http://www.w3.org/2000/svg" viewBox="0 0 216.26 146.06"><defs><style>.cls-1{isolation:isolate;}.cls-11,.cls-12,.cls-2,.cls-8,.cls-9{fill:none;}.cls-2{stroke:#50a58c;}.cls-11,.cls-2,.cls-8{stroke-linecap:round;stroke-linejoin:round;}.cls-12,.cls-2{stroke-width:2px;}.cls-3{fill:#52a890;}.cls-4{fill:#ffe250;stroke-width:1.42px;}.cls-4,.cls-8{stroke:#1f0033;}.cls-12,.cls-4,.cls-9{stroke-miterlimit:10;}.cls-5{fill:#a7e040;}.cls-6{fill:#1f0033;}.cls-7{fill:#547020;}.cls-8{stroke-width:1.24px;}.cls-11,.cls-9{stroke:#fff;}.cls-10,.cls-13{fill:#fff;}.cls-11{stroke-width:2.71px;}.cls-12{stroke:#317c65;}.cls-13{mix-blend-mode:overlay;}.cls-14{fill:#317c65;}</style></defs><title>BIOLOGY-BG</title><g class="cls-1"><g id="Layer_2" data-name="Layer 2"><g id="Layer_3" data-name="Layer 3"><line class="cls-2" x1="16.71" y1="139.68" x2="188.46" y2="139.68"/><line class="cls-2" x1="102.59" y1="145.06" x2="211.96" y2="145.06"/><line class="cls-2" x1="91.01" y1="145.06" x2="77.87" y2="145.06"/><path class="cls-3" d="M11.55,84.59H15.1A11.55,11.55,0,0,1,26.65,96.13h0v2A11.55,11.55,0,0,0,38.2,109.71H62.89a11.55,11.55,0,0,0,11.55,11.54h19.8a11.55,11.55,0,0,0,10.67,7.13h46.16a11.55,11.55,0,0,0,11.55-11.55v-1a11.55,11.55,0,0,1,11.55-11.55h30.55a11.55,11.55,0,0,0,11.55-11.55V85.95A11.55,11.55,0,0,0,204.71,74.4H181.12a3.4,3.4,0,0,1,0-6.79l-.17,0a11.54,11.54,0,0,0,10.69-11.5V49.28A11.55,11.55,0,0,0,180.1,37.73H162.62V30.61a11.55,11.55,0,0,0-11.55-11.55H74.44A11.55,11.55,0,0,0,62.89,30.61v2.88H49.74A11.55,11.55,0,0,0,38.19,45v6.78a11.63,11.63,0,0,0,.07,1.25l-.07,0a6,6,0,0,1-6,6H11.55A11.55,11.55,0,0,0,0,70.67V73A11.55,11.55,0,0,0,11.55,84.59Z"/><rect class="cls-4" x="114.71" y="51.42" width="2.48" height="56.77"/><path class="cls-5" d="M112.26,54.2a16.93,16.93,0,0,1,0-23.95l3.69-3.69,3.69,3.69a16.93,16.93,0,0,1,0,23.95l-3.69,3.69Z"/><path class="cls-6" d="M115.95,27.43l3.26,3.26a16.32,16.32,0,0,1,0,23.07L115.95,57l-3.26-3.26a16.32,16.32,0,0,1,0-23.07l3.26-3.26m0-1.75-.88.88-3.26,3.26a17.55,17.55,0,0,0,0,24.82l3.26,3.26.88.88.88-.88,3.26-3.26a17.57,17.57,0,0,0,0-24.82l-3.26-3.26-.88-.88Z"/><path class="cls-7" d="M114.74,49.3l-3.19,3.19a16.5,16.5,0,0,0,1.15,1.27L115.95,57l3.26-3.26a16.32,16.32,0,0,0,0-23.07l-3.26-3.26-.06.06A16.32,16.32,0,0,1,114.74,49.3Z"/><path class="cls-5" d="M104,79.76A13.34,13.34,0,0,1,90.72,66.44v-13h13A13.34,13.34,0,0,1,117,66.79v13Z"/><path class="cls-6" d="M103.69,54.08a12.7,12.7,0,0,1,12.7,12.7V79.14H104a12.7,12.7,0,0,1-12.7-12.7V54.08h12.36m0-1.24H90.1V66.44A14,14,0,0,0,104,80.38h13.59V66.79a14,14,0,0,0-13.94-13.94Z"/><path class="cls-5" d="M116,98.54v-4a12.63,12.63,0,0,1,12.61-12.61h4v4A12.63,12.63,0,0,1,120,98.54Z"/><path class="cls-6" d="M132,82.55v3.38a12,12,0,0,1-12,12h-3.38V94.54a12,12,0,0,1,12-12H132m1.24-1.24h-4.62a13.24,13.24,0,0,0-13.23,13.23v4.62H120a13.24,13.24,0,0,0,13.23-13.23V81.31Z"/><path class="cls-7" d="M120,93.28h-3.32a12.12,12.12,0,0,0-.07,1.26v3.38H120a12,12,0,0,0,12-12V82.55H132A12,12,0,0,1,120,93.28Z"/><path class="cls-7" d="M91.34,61.77v4.67A12.7,12.7,0,0,0,104,79.14H116.4V74.48H104A12.7,12.7,0,0,1,91.34,61.77Z"/><line class="cls-8" x1="98.35" y1="60.79" x2="116.09" y2="78.53"/><line class="cls-8" x1="110.63" y1="62.54" x2="110.63" y2="73.06"/><line class="cls-8" x1="98.35" y1="69.66" x2="107.18" y2="69.66"/><path class="cls-5" d="M115.24,79.76v-13a13.34,13.34,0,0,1,13.32-13.32h13v13a13.34,13.34,0,0,1-13.32,13.32Z"/><path class="cls-6" d="M140.92,54.08V66.44a12.7,12.7,0,0,1-12.7,12.7H115.86V66.79a12.7,12.7,0,0,1,12.7-12.7h12.36m1.24-1.24H128.56a14,14,0,0,0-13.94,13.94V80.38h13.59a14,14,0,0,0,13.94-13.94V52.85Z"/><path class="cls-7" d="M136.61,54.08v3.59a12.7,12.7,0,0,1-12.7,12.7h-8v8.77h12.36a12.7,12.7,0,0,0,12.7-12.7V54.08Z"/><line class="cls-8" x1="133.42" y1="62.18" x2="115.68" y2="79.92"/><line class="cls-8" x1="121.15" y1="63.93" x2="121.15" y2="74.46"/><line class="cls-8" x1="133.42" y1="71.05" x2="124.59" y2="71.05"/><path class="cls-5" d="M111.17,98.54A12.63,12.63,0,0,1,98.56,85.93v-4h4a12.63,12.63,0,0,1,12.61,12.61v4Z"/><path class="cls-6" d="M102.56,82.55a12,12,0,0,1,12,12v3.38h-3.38a12,12,0,0,1-12-12V82.55h3.38m0-1.24H97.94v4.62a13.24,13.24,0,0,0,13.23,13.23h4.62V94.54a13.24,13.24,0,0,0-13.23-13.23Z"/><path class="cls-7" d="M111.17,93.28h3.32a12.12,12.12,0,0,1,.07,1.26v3.38h-3.38a12,12,0,0,1-12-12V82.55h.07A12,12,0,0,0,111.17,93.28Z"/><line class="cls-9" x1="162.06" x2="162.06" y2="6.08"/><line class="cls-9" x1="165.1" y1="3.04" x2="159.02" y2="3.04"/><line class="cls-9" x1="23.03" y1="6.45" x2="23.03" y2="12.53"/><line class="cls-9" x1="26.07" y1="9.49" x2="19.99" y2="9.49"/><line class="cls-9" x1="43.48" y1="94.2" x2="43.48" y2="99.53"/><line class="cls-9" x1="46.14" y1="96.87" x2="40.81" y2="96.87"/><line class="cls-9" x1="202.52" y1="26.5" x2="202.52" y2="32.58"/><line class="cls-9" x1="205.56" y1="29.54" x2="199.48" y2="29.54"/><circle class="cls-10" cx="205.3" cy="58.89" r="2.1"/><circle class="cls-10" cx="59.59" cy="50.64" r="2.19"/><path class="cls-11" d="M91.89,49.12A46.16,46.16,0,0,0,70.34,88.21q0,1.3.07,2.58"/><path class="cls-11" d="M100,45.06q-1.71.65-3.34,1.44"/><path class="cls-12" d="M133.37,39.43V9.14H100.76V39.07a51.61,51.61,0,1,0,32.61.37Z"/><rect class="cls-12" x="93.62" y="1.37" width="46.6" height="7.77" rx="3.88" ry="3.88"/><circle class="cls-13" cx="84.23" cy="88.25" r="3.74"/><circle class="cls-13" cx="153.41" cy="69.96" r="3.8"/><circle class="cls-13" cx="144.68" cy="80.14" r="2.43"/><path class="cls-14" d="M165.81,103.52a51.62,51.62,0,0,1-98.37.65c6.26-3.84,16.09-5,23.08-3.94,17.13,2.63,30.65,11.66,52.65,12.07,9.23.17,19-5.06,22.63-8.78"/></g></g></g></svg>