<svg xmlns="http://www.w3.org/2000/svg" viewBox="0 0 216.26 154.86"><defs><style>.cls-1{isolation:isolate;}.cls-11,.cls-14,.cls-2,.cls-4,.cls-6,.cls-7{fill:none;}.cls-2,.cls-4{stroke:#f62c73;}.cls-12,.cls-13,.cls-2,.cls-4{stroke-miterlimit:10;}.cls-2{stroke-width:1.93px;}.cls-3{fill:#ed4a66;}.cls-4{stroke-width:1.67px;}.cls-10,.cls-12,.cls-13,.cls-5{fill:#fff;}.cls-6{stroke:#ed4a66;}.cls-11,.cls-14,.cls-6,.cls-7{stroke-linecap:round;stroke-linejoin:round;}.cls-11,.cls-14,.cls-6{stroke-width:2px;}.cls-11,.cls-7{stroke:#bf435e;}.cls-7{stroke-width:2.02px;}.cls-8{fill:#ffe250;}.cls-9{fill:#05dfe3;}.cls-10{mix-blend-mode:overlay;}.cls-12,.cls-13{stroke:#1f0033;}.cls-12{stroke-width:2.09px;}.cls-13{stroke-width:2px;}.cls-14{stroke:#fff;}</style></defs><title>CHEMISTRY-BG</title><g class="cls-1"><g id="Layer_2" data-name="Layer 2"><g id="Layer_1-2" data-name="Layer 1"><line class="cls-2" x1="185.8" y1="140.7" x2="182.08" y2="140.7"/><line class="cls-2" x1="180.84" y1="149.65" x2="161.56" y2="149.65"/><line class="cls-2" x1="187.92" y1="145.12" x2="180.14" y2="145.12"/><line class="cls-2" x1="176.19" y1="145.12" x2="158.26" y2="145.12"/></g><g id="Layer_3" data-name="Layer 3"><path class="cls-3" d="M204.71,67.43h-3.55a11.55,11.55,0,0,1-11.55-11.55h0v-2a11.55,11.55,0,0,0-11.55-11.55H153.37a11.55,11.55,0,0,0-11.55-11.54H122a11.55,11.55,0,0,0-10.67-7.13H65.19A11.55,11.55,0,0,0,53.64,35.19v1A11.55,11.55,0,0,1,42.09,47.74H11.55A11.55,11.55,0,0,0,0,59.29v6.78A11.55,11.55,0,0,0,11.55,77.62H35.14a3.4,3.4,0,0,1,0,6.79l.17,0A11.54,11.54,0,0,0,24.61,96v6.78a11.55,11.55,0,0,0,11.55,11.55H53.64v7.12A11.55,11.55,0,0,0,65.19,133h76.63a11.55,11.55,0,0,0,11.55-11.55v-2.88h13.15A11.55,11.55,0,0,0,178.07,107V100.2a11.63,11.63,0,0,0-.07-1.25l.07,0a6,6,0,0,1,6-6h20.62a11.55,11.55,0,0,0,11.55-11.55V79A11.55,11.55,0,0,0,204.71,67.43Z"/><line class="cls-4" x1="179.43" y1="2.14" x2="179.43" y2="9.61"/><line class="cls-4" x1="183.17" y1="5.88" x2="175.7" y2="5.88"/><circle class="cls-5" cx="75.39" cy="12.24" r="4.07"/><circle class="cls-5" cx="88.28" cy="3.59" r="3.54"/><circle class="cls-5" cx="63.03" cy="2.59" r="2.59"/><line class="cls-6" x1="19.34" y1="149.56" x2="108.72" y2="149.56"/><line class="cls-6" x1="90.63" y1="153.86" x2="174.18" y2="153.86"/><line class="cls-6" x1="58.8" y1="153.86" x2="82.19" y2="153.86"/><line class="cls-6" x1="7.71" y1="153.86" x2="50.86" y2="153.86"/><line class="cls-4" x1="29.28" y1="80.06" x2="29.28" y2="87.53"/><line class="cls-4" x1="33.02" y1="83.79" x2="25.55" y2="83.79"/><rect class="cls-7" x="58.79" y="21.55" width="28.24" height="5.97" rx="2.99" ry="2.99"/><rect class="cls-7" x="97.33" y="21.55" width="28.24" height="5.97" rx="2.99" ry="2.99"/><rect class="cls-7" x="135.87" y="21.55" width="28.24" height="5.97" rx="2.99" ry="2.99"/><path class="cls-8" d="M62.81,96.88a6.65,6.65,0,0,1,5.65-1.53c2.09.42,4.71,1.85,6.76,2.41,3,.82,6,.54,7.79-2v17.75a10.1,10.1,0,0,1-10.1,10.1h0a10.1,10.1,0,0,1-10.1-10.1Z"/><path class="cls-9" d="M101.35,64.2A6.65,6.65,0,0,1,107,62.67c2.09.42,4.71,1.85,6.76,2.41,3,.82,6,.54,7.79-2v50.43a10.1,10.1,0,0,1-10.1,10.1h0a10.1,10.1,0,0,1-10.1-10.1Z"/><circle class="cls-10" cx="116.1" cy="86.62" r="1.77"/><circle class="cls-10" cx="108.72" cy="96.99" r="2.72"/><circle class="cls-10" cx="67.81" cy="102.81" r="2.32"/><circle class="cls-10" cx="77.63" cy="105.93" r="1.64" transform="translate(-50.69 77.95) rotate(-41.46)"/><circle class="cls-10" cx="72.91" cy="110.1" r="0.99" transform="translate(-54.63 75.87) rotate(-41.46)"/><circle class="cls-10" cx="110.49" cy="75.81" r="3.29"/><path class="cls-11" d="M62.81,27.52H83a0,0,0,0,1,0,0v86a10.1,10.1,0,0,1-10.1,10.1h0a10.1,10.1,0,0,1-10.1-10.1v-86A0,0,0,0,1,62.81,27.52Z"/><path class="cls-8" d="M139.89,92.52A6.65,6.65,0,0,1,145.53,91c2.09.42,4.71,1.85,6.76,2.41,3,.82,6,.54,7.79-2v22.11a10.1,10.1,0,0,1-10.1,10.1h0a10.1,10.1,0,0,1-10.1-10.1Z"/><path class="cls-11" d="M101.35,27.52h20.2a0,0,0,0,1,0,0v86a10.1,10.1,0,0,1-10.1,10.1h0a10.1,10.1,0,0,1-10.1-10.1v-86a0,0,0,0,1,0,0Z"/><path class="cls-11" d="M139.89,27.52h20.2a0,0,0,0,1,0,0v86a10.1,10.1,0,0,1-10.1,10.1h0a10.1,10.1,0,0,1-10.1-10.1v-86A0,0,0,0,1,139.89,27.52Z"/><circle class="cls-10" cx="76.13" cy="90.01" r="2.49"/><circle class="cls-10" cx="111.13" cy="56.32" r="2.82"/><circle class="cls-10" cx="71.05" cy="84.59" r="1.85"/><circle class="cls-10" cx="115.46" cy="49" r="1.98"/><circle class="cls-10" cx="153.93" cy="65.56" r="1.96"/><circle class="cls-10" cx="147.91" cy="75.81" r="2.08"/><circle class="cls-10" cx="151.12" cy="85.56" r="2.82"/><circle class="cls-10" cx="110.49" cy="41.9" r="1.84"/><path class="cls-12" d="M42,133.63H182.64a4.88,4.88,0,0,1,4.88,4.88v9a0,0,0,0,1,0,0H37.14a0,0,0,0,1,0,0v-9A4.88,4.88,0,0,1,42,133.63Z"/><rect class="cls-12" x="46.08" y="24.54" width="3.37" height="109.09" rx="1.68" ry="1.68"/><rect class="cls-13" x="103.23" y="-31.4" width="3.11" height="131.45" rx="1.48" ry="1.48" transform="translate(70.46 139.11) rotate(-90)"/><circle class="cls-12" cx="47.76" cy="34.61" r="3.16"/><line class="cls-14" x1="105.19" y1="56.32" x2="105.19" y2="82.74"/><line class="cls-14" x1="105.19" y1="50.98" x2="105.19" y2="52.61"/><line class="cls-14" x1="143.54" y1="56.32" x2="143.54" y2="82.74"/><line class="cls-14" x1="143.54" y1="50.98" x2="143.54" y2="52.61"/><line class="cls-14" x1="66.31" y1="56.32" x2="66.31" y2="82.74"/><line class="cls-14" x1="66.31" y1="50.98" x2="66.31" y2="52.61"/></g></g></g></svg>