<svg xmlns="http://www.w3.org/2000/svg" viewBox="0 0 464.3 88.8"><defs><style>.cls-1,.cls-2{fill:#fff;}.cls-2{fill-rule:evenodd;}.cls-3{fill:#e91d76;}</style></defs><title>Asset 1</title><g id="Layer_2" data-name="Layer 2"><g id="Layer_1-2" data-name="Layer 1"><path class="cls-1" d="M247.85,85.17a27.26,27.26,0,1,1,19.43-46.39,3.33,3.33,0,1,1-4.74,4.67,20.61,20.61,0,1,0,.12,28.79,3.33,3.33,0,0,1,4.78,4.63,27.05,27.05,0,0,1-19.59,8.3"/><path class="cls-1" d="M350.53,84.78a27,27,0,1,1,27-27,27,27,0,0,1-27,27m0-47.25a20.29,20.29,0,1,0,20.29,20.29,20.31,20.31,0,0,0-20.29-20.29"/><path class="cls-1" d="M410.57,84.78a27,27,0,1,1,27-27,27,27,0,0,1-27,27m0-47.25a20.29,20.29,0,1,0,20.29,20.29,20.31,20.31,0,0,0-20.29-20.29"/><path class="cls-1" d="M456.7,88.8a11.25,11.25,0,0,1-6.59-2c-3-2.07-4.76-5.61-5.18-10.22l0-.34V4.08a3.74,3.74,0,0,1,7.48,0v72c.14,1.36.58,3.62,2,4.6s3.57.61,5.2.17a3.74,3.74,0,0,1,2,7.23,18.65,18.65,0,0,1-4.84.7"/><path class="cls-2" d="M209.8,57.77c-2.93-1.4-16.52-4.67-19.83-6.08-4.95-2.12-5.57-8.59-1.46-12.06,4.29-3.62,12.39-3.9,16.74-.41a42.34,42.34,0,0,1,4.07,4.23A3.15,3.15,0,0,0,215,41.54a4.43,4.43,0,0,0-.44-1.61,13.43,13.43,0,0,0-5.21-5.66,21.87,21.87,0,0,0-22.38-.89,13.75,13.75,0,0,0-7.64,12.37c-.1,4.89,2,8.6,6.51,10.74,2.55,1.21,16.33,4.83,19.06,5.93,5.2,1.84,6.88,7.47,3.79,12a11.19,11.19,0,0,1-9,4.84c-6.6.43-12.21-1.6-16.08-7.32a3.21,3.21,0,0,0-.22-.29,3.34,3.34,0,1,0-5.12,4.3,19.38,19.38,0,0,0,5.36,5.16,25.44,25.44,0,0,0,20.57,3c6.74-1.76,12.05-5.53,12.91-12.77a12.87,12.87,0,0,0-7.31-13.62"/><path class="cls-1" d="M327.84,83.62a3.36,3.36,0,0,0-4.11-2.35c-1.83.5-4.39.83-6-.39a6.11,6.11,0,0,1-2-4.64V51.14c0-6.26-1.67-11.34-6.56-15.71a19.33,19.33,0,0,0-15-4.78,20.17,20.17,0,0,0-14.4,8.61V3.33a3.5,3.5,0,0,0-7,0V81.72a3.5,3.5,0,0,0,7,0v-30c2.24-7.14,7.69-13.93,15.38-14.57A12.94,12.94,0,0,1,305,40.38a14.46,14.46,0,0,1,4.71,10.77V76.38c0,4.14,1.54,7.73,4.39,9.85a10.52,10.52,0,0,0,6.7,2.16,18.26,18.26,0,0,0,4.74-.68,3.33,3.33,0,0,0,2.34-4.09"/><path class="cls-3" d="M23.14,32.27v12H13.57V85.12H0V32.88a29.61,29.61,0,0,1,1.54-9.72,20.27,20.27,0,0,1,4.58-7.61,18.37,18.37,0,0,1,7.4-4.63,23.48,23.48,0,0,1,10.13-.87V22.8q-4.94-.41-7.46,1.75t-2.62,7.71Z"/><path class="cls-3" d="M76.92,62.6A25.37,25.37,0,0,1,75.22,72,21.8,21.8,0,0,1,62.83,84.45a25.72,25.72,0,0,1-9.77,1.8,26.55,26.55,0,0,1-9.92-1.75,20.58,20.58,0,0,1-12-12.34,27.43,27.43,0,0,1-1.59-9.56V32.06H43.09V63a16.3,16.3,0,0,0,.31,2.83,9.47,9.47,0,0,0,1.34,3.34,8.34,8.34,0,0,0,3,2.78,10.68,10.68,0,0,0,5.35,1.13,10.12,10.12,0,0,0,7.4-2.83A9.72,9.72,0,0,0,63.34,63v-31H76.92Z"/><path class="cls-3" d="M81.13,71.85A20.53,20.53,0,0,0,86,71.7a6.48,6.48,0,0,0,3.65-1.8,8,8,0,0,0,1.85-3.29,27.78,27.78,0,0,0,.82-8.12q0-2.57.21-5.35a30.17,30.17,0,0,1,.93-5.5,25.52,25.52,0,0,1,2.06-5.3,17,17,0,0,1,3.7-4.73q6.48-6.37,17.89-5.45V45.33q-5.66-.62-8.54,2.26a8.68,8.68,0,0,0-1,1.18,6.68,6.68,0,0,0-.82,1.9,21.75,21.75,0,0,0-.62,3.08,35.48,35.48,0,0,0-.26,4.73q0,2.67-.21,5.5a32.66,32.66,0,0,1-.93,5.66,26.28,26.28,0,0,1-2.06,5.45,17.78,17.78,0,0,1-3.6,4.78,17.33,17.33,0,0,1-7.81,4.37A31.31,31.31,0,0,1,81.13,85Z"/><path class="cls-3" d="M152.19,72.83a14.49,14.49,0,0,1-6.37,1.49,13.65,13.65,0,0,1-6.38-1.49,14.68,14.68,0,0,1-4.94-4.17l37.43-15.73a27.92,27.92,0,0,0-3.34-9.46,25.81,25.81,0,0,0-5.86-6.94A25,25,0,0,0,155,32.21a27.56,27.56,0,0,0-9-1.49,25.62,25.62,0,0,0-10.59,2.21,28.23,28.23,0,0,0-8.64,6,27.33,27.33,0,0,0-5.81,8.84,28.06,28.06,0,0,0-2.11,10.85,27.47,27.47,0,0,0,16.56,25.5,26.12,26.12,0,0,0,10.59,2.16q10,0,16.61-5a24.55,24.55,0,0,0,9-13.11H157a10.79,10.79,0,0,1-4.83,4.68M132.7,51.7a15.89,15.89,0,0,1,3.09-4.78,13.64,13.64,0,0,1,10-4.27,14.09,14.09,0,0,1,6,1.23,12.6,12.6,0,0,1,4.52,3.5L131.42,57.87a16.87,16.87,0,0,1,1.29-6.17"/></g></g></svg>