<svg xmlns="http://www.w3.org/2000/svg" viewBox="0 0 216.26 150.22"><defs><style>.cls-1,.cls-11,.cls-3,.cls-8{fill:none;}.cls-1{stroke:#f4d34d;}.cls-1,.cls-8{stroke-linecap:round;stroke-linejoin:round;}.cls-1,.cls-4,.cls-8,.cls-9{stroke-width:2px;}.cls-2{fill:#f4d34d;}.cls-3,.cls-8,.cls-9{stroke:#162039;}.cls-10,.cls-11,.cls-3,.cls-4,.cls-9{stroke-miterlimit:10;}.cls-10,.cls-3{stroke-width:1.56px;}.cls-10,.cls-12,.cls-4{fill:#fff;}.cls-10,.cls-4{stroke:#1f0033;}.cls-5{fill:#ff6570;}.cls-6{fill:#dd5067;}.cls-7{fill:#bf435e;}.cls-9{fill:#0bb4b2;}.cls-11{stroke:#fff;}</style></defs><title>MATHS-BG</title><g id="Layer_2" data-name="Layer 2"><g id="Layer_3" data-name="Layer 3"><line class="cls-1" x1="210.2" y1="143.83" x2="38.45" y2="143.83"/><line class="cls-1" x1="124.33" y1="149.22" x2="14.95" y2="149.22"/><line class="cls-1" x1="135.91" y1="149.22" x2="149.04" y2="149.22"/><path class="cls-2" d="M204.71,67h-3.55a11.55,11.55,0,0,1-11.55-11.55h0v-2a11.55,11.55,0,0,0-11.55-11.55H153.37a11.55,11.55,0,0,0-11.55-11.54H122a11.55,11.55,0,0,0-10.67-7.13H65.19A11.55,11.55,0,0,0,53.64,34.77v1A11.55,11.55,0,0,1,42.09,47.33H11.55A11.55,11.55,0,0,0,0,58.87v6.78A11.55,11.55,0,0,0,11.55,77.2H35.14a3.4,3.4,0,0,1,0,6.79l.17,0a11.54,11.54,0,0,0-10.69,11.5v6.78a11.55,11.55,0,0,0,11.55,11.55H53.64V121a11.55,11.55,0,0,0,11.55,11.55h76.63A11.55,11.55,0,0,0,153.37,121v-2.88h13.15a11.55,11.55,0,0,0,11.55-11.55V99.78a11.63,11.63,0,0,0-.07-1.25l.07,0a6,6,0,0,1,6-6h20.62a11.55,11.55,0,0,0,11.55-11.55V78.57A11.55,11.55,0,0,0,204.71,67Z"/><line class="cls-3" x1="108.13" y1="125.24" x2="103.97" y2="125.24"/><circle class="cls-4" cx="73.53" cy="27.8" r="4.98"/><circle class="cls-4" cx="104.76" cy="27.8" r="4.98"/><rect class="cls-5" x="59.13" y="39.2" width="91.04" height="102.11" rx="16.07" ry="16.07"/><path class="cls-6" d="M134.1,40.2a15.07,15.07,0,0,1,15.07,15.07v70a15.07,15.07,0,0,1-15.07,15.07H75.2a15.07,15.07,0,0,1-15.07-15.07v-70A15.07,15.07,0,0,1,75.2,40.2h58.9m0-2H75.2A17.09,17.09,0,0,0,58.14,55.27v70A17.09,17.09,0,0,0,75.2,142.31h58.9a17.09,17.09,0,0,0,17.07-17.07v-70A17.09,17.09,0,0,0,134.1,38.2Z"/><path class="cls-7" d="M138.77,40.94a15,15,0,0,1,1.9,7.32v70a15.07,15.07,0,0,1-15.07,15.07H66.7a15,15,0,0,1-4.66-.74,15.06,15.06,0,0,0,13.16,7.74h58.9a15.07,15.07,0,0,0,15.07-15.07v-70A15.07,15.07,0,0,0,138.77,40.94Z"/><line class="cls-8" x1="123.03" y1="46.4" x2="125.91" y2="46.4"/><line class="cls-8" x1="129.46" y1="46.4" x2="138.1" y2="46.4"/><rect class="cls-9" x="65.67" y="59.69" width="77.52" height="15.72" rx="5.65" ry="5.65"/><path class="cls-4" d="M76.75,83.39a2.44,2.44,0,0,1-2.44,2.44H69a2.44,2.44,0,0,1-2.44-2.44h0A2.44,2.44,0,0,1,69,80.95h5.31a2.44,2.44,0,0,1,2.44,2.44Z"/><path class="cls-10" d="M93.13,83.39a2.44,2.44,0,0,1-2.44,2.44H85.38a2.44,2.44,0,0,1-2.44-2.44h0a2.44,2.44,0,0,1,2.44-2.44H90.7a2.44,2.44,0,0,1,2.44,2.44Z"/><path class="cls-4" d="M109.52,83.39a2.44,2.44,0,0,1-2.44,2.44h-5.31a2.44,2.44,0,0,1-2.44-2.44h0a2.44,2.44,0,0,1,2.44-2.44h5.31a2.44,2.44,0,0,1,2.44,2.44Z"/><path class="cls-4" d="M125.91,83.39a2.44,2.44,0,0,1-2.44,2.44h-5.31a2.44,2.44,0,0,1-2.44-2.44h0a2.44,2.44,0,0,1,2.44-2.44h5.31a2.44,2.44,0,0,1,2.44,2.44Z"/><path class="cls-4" d="M142.3,83.39a2.44,2.44,0,0,1-2.44,2.44h-5.31a2.44,2.44,0,0,1-2.44-2.44h0a2.44,2.44,0,0,1,2.44-2.44h5.31a2.44,2.44,0,0,1,2.44,2.44Z"/><path class="cls-4" d="M142.3,93.8a2.44,2.44,0,0,1-2.44,2.44h-5.31a2.44,2.44,0,0,1-2.44-2.44h0a2.44,2.44,0,0,1,2.44-2.44h5.31a2.44,2.44,0,0,1,2.44,2.44Z"/><rect class="cls-9" x="66.56" y="91.36" width="10.19" height="10.41" rx="3.77" ry="3.77"/><rect class="cls-9" x="82.95" y="91.36" width="10.19" height="10.41" rx="3.77" ry="3.77"/><rect class="cls-9" x="99.34" y="91.36" width="10.19" height="10.41" rx="3.77" ry="3.77"/><rect class="cls-9" x="115.73" y="91.36" width="10.19" height="10.41" rx="3.77" ry="3.77"/><rect class="cls-9" x="66.56" y="107.03" width="10.19" height="10.41" rx="3.77" ry="3.77"/><rect class="cls-9" x="82.95" y="107.03" width="10.19" height="10.41" rx="3.77" ry="3.77"/><rect class="cls-9" x="99.34" y="107.03" width="10.19" height="10.41" rx="3.77" ry="3.77"/><rect class="cls-9" x="115.73" y="107.03" width="10.19" height="10.41" rx="3.77" ry="3.77"/><rect class="cls-9" x="66.56" y="122.69" width="10.19" height="10.41" rx="3.77" ry="3.77"/><rect class="cls-9" x="82.95" y="122.69" width="10.19" height="10.41" rx="3.77" ry="3.77"/><rect class="cls-9" x="99.34" y="122.69" width="10.19" height="10.41" rx="3.77" ry="3.77"/><rect class="cls-9" x="115.73" y="122.69" width="10.19" height="10.41" rx="3.77" ry="3.77"/><path class="cls-9" d="M135.88,103.1h2.65a3.77,3.77,0,0,1,3.77,3.77v23.7a3.76,3.76,0,0,1-3.76,3.76h-2.66a3.77,3.77,0,0,1-3.77-3.77V106.87A3.77,3.77,0,0,1,135.88,103.1Z"/><rect class="cls-4" x="73.53" y="6.64" width="31.23" height="45.51" rx="3.77" ry="3.77"/><path class="cls-9" d="M109.75,50.27a3.88,3.88,0,0,1-3.88,3.88H72.43a3.88,3.88,0,0,1-3.88-3.88h0a3.88,3.88,0,0,1,3.88-3.87h33.44a3.87,3.87,0,0,1,3.88,3.87Z"/><line class="cls-11" x1="137.62" y1="6.08" x2="137.62"/><line class="cls-11" x1="134.58" y1="3.04" x2="140.66" y2="3.04"/><line class="cls-11" x1="37.2" y1="18.05" x2="37.2" y2="12.72"/><line class="cls-11" x1="34.54" y1="15.38" x2="39.87" y2="15.38"/><line class="cls-11" x1="200.99" y1="61.38" x2="200.99" y2="55.3"/><line class="cls-11" x1="197.94" y1="58.34" x2="204.03" y2="58.34"/><line class="cls-11" x1="31.49" y1="132.08" x2="31.49" y2="126"/><line class="cls-11" x1="28.45" y1="129.04" x2="34.54" y2="129.04"/><circle class="cls-12" cx="38.28" cy="66.36" r="2.1"/><circle class="cls-12" cx="179.54" cy="89.05" r="2.19"/></g></g></svg>