<svg xmlns="http://www.w3.org/2000/svg" viewBox="0 0 223.11 162.42"><defs><style>.cls-1{fill:#6bb5c1;}.cls-2,.cls-8{fill:#fff;}.cls-10,.cls-14,.cls-15,.cls-17,.cls-2{stroke:#1f0033;}.cls-10,.cls-14,.cls-15,.cls-2,.cls-4,.cls-5,.cls-6,.cls-7{stroke-miterlimit:10;}.cls-10,.cls-14,.cls-17,.cls-2{stroke-width:2px;}.cls-14,.cls-16,.cls-17,.cls-3,.cls-4,.cls-5,.cls-6,.cls-7{fill:none;}.cls-16,.cls-3,.cls-4,.cls-5,.cls-6,.cls-7{stroke:#fff;}.cls-11,.cls-16,.cls-17,.cls-3{stroke-linecap:round;stroke-linejoin:round;}.cls-3{stroke-width:1.53px;}.cls-4{stroke-width:1.35px;}.cls-5{stroke-width:1.65px;}.cls-6{stroke-width:1.88px;}.cls-7{stroke-width:1.13px;}.cls-9{fill:#1f0033;}.cls-10{fill:#2d3d48;}.cls-11{fill:#76c0d1;stroke:#5ca3aa;stroke-width:2.84px;}.cls-12{fill:#a5b2bd;}.cls-13{fill:#d6dde3;}.cls-15{fill:#3197d6;}.cls-16{stroke-width:1.42px;}</style></defs><title>PHYSICS-BG</title><g id="Layer_2" data-name="Layer 2"><g id="Layer_1-2" data-name="Layer 1"><path class="cls-1" d="M11.55,106.31H15.1a11.55,11.55,0,0,1,11.55,11.55h0v2A11.55,11.55,0,0,0,38.2,131.43H62.89A11.55,11.55,0,0,0,74.44,143h19.8a11.55,11.55,0,0,0,10.67,7.13h46.16a11.55,11.55,0,0,0,11.55-11.55v-1A11.55,11.55,0,0,1,174.17,126h30.55a11.55,11.55,0,0,0,11.55-11.55v-6.78a11.55,11.55,0,0,0-11.55-11.55H181.12a3.4,3.4,0,0,1,0-6.79l-.17,0a11.54,11.54,0,0,0,10.69-11.5V71A11.55,11.55,0,0,0,180.1,59.46H162.62V52.33a11.55,11.55,0,0,0-11.55-11.55H74.44A11.55,11.55,0,0,0,62.89,52.33v2.88H49.74A11.55,11.55,0,0,0,38.19,66.76v6.78a11.63,11.63,0,0,0,.07,1.25l-.07,0a6,6,0,0,1-6,6H11.55A11.55,11.55,0,0,0,0,92.39v2.36A11.55,11.55,0,0,0,11.55,106.31Z"/><rect class="cls-2" x="109.7" y="127.47" width="18.4" height="26.65"/><path class="cls-3" d="M38,30.74H65.47a9.82,9.82,0,1,0-9.23-13.15,7,7,0,0,0-10.4,6.14h-4.6"/><line class="cls-3" x1="38.94" y1="23.89" x2="36.09" y2="23.89"/><line class="cls-3" x1="35.14" y1="30.74" x2="20.37" y2="30.74"/><line class="cls-3" x1="40.56" y1="27.27" x2="34.6" y2="27.27"/><line class="cls-3" x1="31.57" y1="27.27" x2="17.84" y2="27.27"/><line class="cls-4" x1="204.6" y1="43.16" x2="204.6" y2="49.21"/><line class="cls-4" x1="207.63" y1="46.19" x2="201.58" y2="46.19"/><line class="cls-5" x1="219.43" y1="144.77" x2="219.43" y2="152.12"/><line class="cls-5" x1="223.11" y1="148.45" x2="215.76" y2="148.45"/><line class="cls-6" x1="11.62" y1="135.41" x2="11.62" y2="143.79"/><line class="cls-6" x1="15.81" y1="139.6" x2="7.43" y2="139.6"/><line class="cls-7" x1="177.98" y1="6.9" x2="177.98" y2="11.95"/><line class="cls-7" x1="180.5" y1="9.42" x2="175.45" y2="9.42"/><circle class="cls-8" cx="218.33" cy="2.98" r="2.98"/><circle class="cls-8" cx="19.33" cy="56.46" r="3.1"/><path class="cls-8" d="M94.39,113.12a3.65,3.65,0,0,1-2.79-1.28,5.35,5.35,0,0,1-1.06-4.33c1.14-12.15,9.44-24.45,9.79-25l1.39-2,4.72,27.13-10,5a4.53,4.53,0,0,1-2,.5Z"/><path class="cls-9" d="M101.16,83.1l4.17,24L96,111.72a3.55,3.55,0,0,1-1.58.4c-1.89,0-3.23-1.84-2.86-4.47,1.13-12.08,9.63-24.55,9.63-24.55m1.12-5.2L99.5,82c-.36.53-8.78,13-10,25.44a6.32,6.32,0,0,0,1.31,5.08,4.64,4.64,0,0,0,3.54,1.62,5.52,5.52,0,0,0,2.47-.61l9.36-4.65,1.34-.66-.26-1.47-4.17-24-.85-4.86Z"/><path class="cls-8" d="M143.07,113.12a4.53,4.53,0,0,1-2-.5l-10-5,4.72-27.13,1.39,2c.35.52,8.65,12.82,9.79,25a5.32,5.32,0,0,1-1.07,4.28A3.65,3.65,0,0,1,143.07,113.12Z"/><path class="cls-9" d="M136.31,83.1s8.49,12.47,9.63,24.55c.37,2.62-1,4.47-2.86,4.47a3.55,3.55,0,0,1-1.58-.4l-9.36-4.65,4.17-24m-1.12-5.2-.85,4.86-4.17,24-.26,1.47,1.34.66,9.36,4.65a5.52,5.52,0,0,0,2.47.61,4.64,4.64,0,0,0,3.54-1.62,6.32,6.32,0,0,0,1.31-5.08C146.74,95,138.32,82.5,138,82l-2.78-4.08Z"/><path class="cls-10" d="M127.4,117.85H110.07l-2.66,7.46a1.62,1.62,0,0,0,1.53,2.17h19.49a1.62,1.62,0,0,0,1.53-2.15Z"/><path class="cls-11" d="M155.77,158.18a9.25,9.25,0,0,0-13.22.43c0-.08,0-.17,0-.25A10.93,10.93,0,0,0,123,153.09a12.83,12.83,0,0,0-23.55,4.1A11.59,11.59,0,0,0,82.64,161"/><path class="cls-12" d="M142.17,94A37.61,37.61,0,0,1,137,109.37L128,105l5.83-26.83S139.33,87.79,142.17,94Z"/><path class="cls-8" d="M109.51,118.85l-.29-.48c-6.22-10.28-8.36-24.81-9.06-35.2A143.17,143.17,0,0,1,100,65.9c-.19-11.2,5-32.38,16.6-42a3.35,3.35,0,0,1,2.12-.79,3.46,3.46,0,0,1,2.18.82c11.61,9.63,16.76,30.82,16.57,42.1.09,1.28,2.15,33.61-9.22,52.38l-.29.48Z"/><path class="cls-9" d="M118.73,24.07a2.46,2.46,0,0,1,1.51.56C131.53,34,136.66,55,136.48,66c0,0,2.26,33.16-9.08,51.88H110.07c-6-9.89-8.18-23.81-8.91-34.75A140.47,140.47,0,0,1,101,66c-.18-11,4.94-32,16.24-41.34a2.34,2.34,0,0,1,1.48-.56m0-2a4.36,4.36,0,0,0-2.72,1c-11.9,9.86-17.16,31.36-17,42.85a142.47,142.47,0,0,0,.15,17.32c.7,10.5,2.87,25.2,9.2,35.65l.58,1h19.58l.58-1c11.36-18.76,9.52-50.68,9.37-53,.16-11.49-5.09-33-16.95-42.81a4.46,4.46,0,0,0-2.8-1Z"/><path class="cls-13" d="M136.48,66c.18-11-4.94-32-16.24-41.33a2.55,2.55,0,0,0-.94-.48v93.7h8.1C138.74,99.13,136.48,66,136.48,66Z"/><line class="cls-14" x1="107.58" y1="34.9" x2="129.58" y2="34.9"/><rect class="cls-9" x="118.32" y="101.13" width="1.95" height="16.72"/><circle class="cls-15" cx="118.74" cy="65.97" r="9.15"/><path class="cls-16" d="M118,60.84a5.18,5.18,0,0,0-4.41,4.42"/><line class="cls-17" x1="114.08" y1="132.96" x2="114.08" y2="141.46"/><line class="cls-17" x1="118.42" y1="139.96" x2="118.42" y2="144.96"/><line class="cls-17" x1="118.42" y1="131.62" x2="118.42" y2="134.04"/><line class="cls-17" x1="124.58" y1="134.71" x2="124.58" y2="141.62"/></g></g></svg>